PathFileType	4	(X/Y/Z)	Walk2.trc
DataRate	CameraRate	NumFrames	NumMarkers	Units	OrigDataRate	OrigDataStartFrame	OrigNumFrames
200.000000	200.000000	7	61	mm	200.000000	550	591
Frame#	Times		RCAR		RTH2		LTH3		LTB1		LWRU		LBHD		LFA1		RTH3		LUA1		LElbow		LCAR		RToe		RPSI		RASI		RTB2		RLFC		RTB3		RTB1		C7		RMT5		LElbowM		RTB4		LTH4		RTH4		LTH1		LTH2		RWRR		RBHD		LWRR		STRN		RFA1		RMT1		RTH1		RMMAL		RLMAL		RBack		T10		LPSI		LASI		CLAV		RElbow		RUA1		RCAL		LLFC		LMFC		LACR1		LTB4		RElbowM		LTB3		LCAL		RFHD		RACR1		LFHD		LMMAL		RMFC		LTB2		LMT5		LLMAL		RWRU		LToe		LMT1
			X1	Y1	Z1	X2	Y2	Z2	X3	Y3	Z3	X4	Y4	Z4	X5	Y5	Z5	X6	Y6	Z6	X7	Y7	Z7	X8	Y8	Z8	X9	Y9	Z9	X10	Y10	Z10	X11	Y11	Z11	X12	Y12	Z12	X13	Y13	Z13	X14	Y14	Z14	X15	Y15	Z15	X16	Y16	Z16	X17	Y17	Z17	X18	Y18	Z18	X19	Y19	Z19	X20	Y20	Z20	X21	Y21	Z21	X22	Y22	Z22	X23	Y23	Z23	X24	Y24	Z24	X25	Y25	Z25	X26	Y26	Z26	X27	Y27	Z27	X28	Y28	Z28	X29	Y29	Z29	X30	Y30	Z30	X31	Y31	Z31	X32	Y32	Z32	X33	Y33	Z33	X34	Y34	Z34	X35	Y35	Z35	X36	Y36	Z36	X37	Y37	Z37	X38	Y38	Z38	X39	Y39	Z39	X40	Y40	Z40	X41	Y41	Z41	X42	Y42	Z42	X43	Y43	Z43	X44	Y44	Z44	X45	Y45	Z45	X46	Y46	Z46	X47	Y47	Z47	X48	Y48	Z48	X49	Y49	Z49	X50	Y50	Z50	X51	Y51	Z51	X52	Y52	Z52	X53	Y53	Z53	X54	Y54	Z54	X55	Y55	Z55	X56	Y56	Z56	X57	Y57	Z57	X58	Y58	Z58	X59	Y59	Z59	X60	Y60	Z60	X61	Y61	Z61

550	2.75	1032.7	853.24	308.33	1083.6	744.43	182.29	942.47	617.57	-147.11	960.24	373.23	-52.053	1032.2	874.22	-287.43	906.92	1648.4	-103.44	980.82	997.34	-307.6	1042.7	633.93	207	936.2	1298.3	-281.75	933.82	1142.1	-306.46	1111.6	848.71	-285.22	1031	44.287	145.87	780.5	1026.8	44.196	988.69	1055	147.31	984.77	319.48	185.84	1053.1	523.27	201.2	970.9	234.31	114.68	1066.7	393.47	136.52	874.26	1521.5	-22.938	935.77	56.282	183.37	892.25	1127.6	-242.37	1020	312.49	124.57	943.68	708.26	-164.94	1021.4	725.12	213.83	946.25	799.54	-180.71	1011.6	712.81	-140.5	1025.6	890.93	253	909.25	1660.9	37.887	1091.7	899.03	-233.95	1054.6	1263	-13.908	923.06	1006.1	302.89	990.49	52.286	117.14	987.92	815.96	207.2	923.84	149.67	73.582	870.14	140.48	144.5	797.93	1439.5	112.28	771.47	1296.9	-15.969	778.49	1025.8	-36.12	973.65	1050.2	-130.98	1006.9	1435.8	-18.314	887.57	1153.2	279.65	919.37	1307.1	242.22	815.62	125.95	84.596	931.2	513.03	-132.46	940.53	521.85	-3.5999	951.85	1472.2	-186.07	938.82	286.06	-46.863	861.78	1135.2	204.46	915.23	192.66	-44.061	789.68	28.594	-39.008	1086.5	1693.1	11.491	951.94	1477.2	141.1	1086.2	1688	-65.083	878.74	91.137	-0.24894	1086.2	535.03	71.565	917.79	288.82	-119.83	946.23	22.682	-118.11	850.31	70.486	-81.993	968.47	876.4	303.76	1049.9	31.703	-51.752	995.91	40.049	-34.358
551	2.755	1033.6	852.33	309.41	1089.4	745.25	181.6	944.46	617.55	-147.16	960.98	373.06	-52.12	1041.8	875.39	-287.55	912.08	1648.4	-103.41	989.26	998	-307.98	1049.4	634.58	206.65	942.23	1298.6	-281.97	940.95	1142.4	-307	1121.4	850.72	-285.4	1049.6	44.274	146.74	785.26	1026.9	44.223	994.23	1054.8	146.52	996.31	318.18	185.77	1060.4	523.79	200.73	984.72	232.53	114.63	1076.4	393.99	136.42	879.35	1521.5	-22.979	953.94	54.025	183.93	899.41	1127.4	-242.95	1031.8	311.86	124.46	946.39	708.27	-164.93	1028	725.67	213.64	949.91	799.53	-180.96	1014.4	712.25	-140.59	1027.2	889.99	253.96	914.37	1660.8	37.931	1101	900.87	-234.17	1059.5	1262.9	-14.05	925.15	1006	303.12	1008.9	51.192	117.86	993.65	816.39	207.09	940.01	146.62	73.61	886.21	136.24	144.55	802.86	1439.5	112.1	776.4	1297	-16.01	783.18	1025.8	-36.138	981.03	1050.3	-133.4	1011.9	1435.6	-18.358	890.78	1153.2	279.51	923.33	1307	242.26	832.27	120.05	84.491	932.42	513.01	-132.51	942.04	521.7	-3.6451	957.02	1472.3	-186.04	939.32	285.95	-46.898	865.32	1135.3	204.26	915.5	192.59	-44.108	789.69	28.688	-38.991	1091.7	1693	11.611	956.93	1477	141.15	1091.4	1687.9	-64.97	878.78	91.171	-0.25168	1092.5	535.68	70.935	918.31	288.76	-119.88	946.21	22.657	-118.14	850.32	70.554	-82.003	969.62	875.94	304.39	1049.9	31.682	-51.769	995.88	40.023	-34.363
552	2.76	1034.6	851.44	310.47	1095.1	745.95	180.9	946.46	617.53	-147.21	961.72	372.89	-52.185	1051.3	876.53	-287.65	917.26	1648.4	-103.38	997.65	998.63	-308.33	1055.8	635.13	206.27	948.23	1298.9	-282.17	948.04	1142.6	-307.53	1131.2	852.72	-285.56	1068.2	44.382	147.65	790.03	1026.9	44.263	999.64	1054.5	145.87	1007.8	316.87	185.7	1067.5	524.21	200.24	998.58	230.75	114.61	1086	394.46	136.27	884.46	1521.5	-23.007	972.21	51.881	184.53	906.54	1127.2	-243.5	1043.6	311.23	124.35	949.09	708.26	-164.92	1034.4	726.13	213.42	953.57	799.51	-181.17	1017.2	711.67	-140.68	1028.8	889.07	254.92	919.49	1660.7	37.979	1110.4	902.7	-234.36	1064.4	1262.6	-14.178	927.26	1005.9	303.36	1027.5	50.216	118.62	999.31	816.74	207	956.31	143.63	73.668	902.44	132.04	144.63	807.82	1439.5	111.94	781.34	1297	-16.03	787.89	1025.8	-36.115	988.19	1050.2	-135.52	1017	1435.5	-18.391	894.02	1153.2	279.37	927.32	1306.8	242.3	849.14	114.18	84.426	933.64	512.99	-132.55	943.58	521.56	-3.6906	962.2	1472.3	-186	939.84	285.83	-46.933	868.87	1135.4	204.07	915.79	192.53	-44.156	789.71	28.789	-38.972	1096.8	1692.8	11.736	961.94	1476.8	141.21	1096.6	1687.8	-64.852	878.81	91.205	-0.25234	1098.5	536.2	70.291	918.82	288.7	-119.93	946.18	22.632	-118.16	850.32	70.626	-82.013	970.81	875.48	305	1049.9	31.66	-51.786	995.85	40.001	-34.371
553	2.765	1035.7	850.55	311.51	1100.8	746.54	180.19	948.47	617.5	-147.25	962.48	372.71	-52.245	1060.9	877.65	-287.72	922.44	1648.3	-103.34	1006	999.23	-308.66	1062.2	635.58	205.87	954.22	1299.1	-282.36	955.09	1142.9	-308.02	1141	854.7	-285.69	1086.9	44.627	148.57	794.8	1026.9	44.315	1004.9	1054.2	145.36	1019.3	315.55	185.62	1074.4	524.54	199.73	1012.5	229	114.63	1095.5	394.87	136.08	889.58	1521.4	-23.021	990.58	49.865	185.17	913.64	1127	-244.04	1055.3	310.61	124.23	951.81	708.24	-164.89	1040.7	726.5	213.18	957.23	799.46	-181.34	1020	711.07	-140.77	1030.4	888.15	255.87	924.62	1660.5	38.032	1119.6	904.51	-234.53	1069.3	1262.4	-14.292	929.42	1005.8	303.61	1046.1	49.374	119.39	1004.9	817	206.94	972.7	140.72	73.756	918.81	127.9	144.75	812.79	1439.5	111.8	786.29	1297	-16.03	792.62	1025.7	-36.05	995.1	1049.9	-137.34	1022	1435.3	-18.414	897.27	1153.2	279.26	931.34	1306.6	242.36	866.22	108.37	84.411	934.88	512.97	-132.59	945.12	521.41	-3.7359	967.39	1472.2	-185.95	940.36	285.72	-46.967	872.42	1135.5	203.9	916.09	192.46	-44.204	789.72	28.893	-38.951	1102	1692.6	11.866	966.98	1476.6	141.29	1101.7	1687.6	-64.728	878.86	91.241	-0.25128	1104.5	536.6	69.639	919.34	288.64	-119.98	946.15	22.606	-118.18	850.33	70.7	-82.021	972.05	875.01	305.6	1049.9	31.639	-51.803	995.83	39.981	-34.381
554	2.77	1036.8	849.68	312.55	1106.4	747	179.48	950.48	617.45	-147.3	963.25	372.52	-52.303	1070.3	878.75	-287.76	927.64	1648.1	-103.29	1014.3	999.81	-308.96	1068.3	635.94	205.45	960.2	1299.2	-282.52	962.1	1143.1	-308.5	1150.6	856.66	-285.79	1105.6	45.024	149.49	799.58	1026.9	44.381	1010.1	1053.8	144.98	1030.8	314.24	185.53	1081.2	524.77	199.19	1026.4	227.29	114.67	1104.9	395.25	135.84	894.73	1521.3	-23.022	1009	47.992	185.83	920.71	1126.8	-244.56	1067.1	310.02	124.1	954.53	708.2	-164.86	1046.8	726.77	212.92	960.88	799.4	-181.47	1022.8	710.46	-140.86	1032.1	887.23	256.82	929.76	1660.3	38.091	1128.8	906.29	-234.67	1074.2	1262.1	-14.391	931.61	1005.6	303.85	1064.7	48.684	120.17	1010.4	817.18	206.93	989.18	137.89	73.877	935.33	123.84	144.92	817.79	1439.4	111.68	791.25	1297	-16.008	797.36	1025.6	-35.94	1001.8	1049.4	-138.86	1027.1	1435	-18.426	900.55	1153.1	279.15	935.38	1306.4	242.44	883.48	102.65	84.456	936.13	512.94	-132.64	946.68	521.27	-3.7806	972.58	1472.2	-185.9	940.91	285.6	-47.005	875.99	1135.5	203.73	916.39	192.4	-44.253	789.74	29.001	-38.927	1107.1	1692.4	12	972.03	1476.3	141.37	1106.9	1687.4	-64.598	878.9	91.279	-0.249	1110.2	536.88	68.986	919.87	288.58	-120.02	946.12	22.581	-118.21	850.34	70.778	-82.028	973.33	874.54	306.18	1049.9	31.618	-51.819	995.81	39.967	-34.394
555	2.775	1037.9	848.82	313.57	1111.8	747.33	178.77	952.51	617.4	-147.34	964.04	372.33	-52.36	1079.7	879.82	-287.77	932.85	1648	-103.24	1022.6	1000.4	-309.24	1074.3	636.18	205.02	966.15	1299.3	-282.66	969.07	1143.2	-308.94	1160.2	858.6	-285.86	1124.3	45.589	150.38	804.37	1026.8	44.459	1015.2	1053.4	144.72	1042.3	312.93	185.43	1087.8	524.89	198.64	1040.3	225.64	114.73	1114.2	395.59	135.55	899.89	1521.1	-23.01	1027.6	46.279	186.51	927.73	1126.6	-245.06	1078.7	309.44	123.97	957.26	708.14	-164.81	1052.7	726.94	212.62	964.51	799.31	-181.56	1025.7	709.83	-140.94	1033.8	886.33	257.76	934.91	1660	38.155	1137.9	908.05	-234.78	1079.2	1261.7	-14.477	933.84	1005.5	304.11	1083.4	48.16	120.93	1015.8	817.27	206.98	1005.7	135.17	74.033	951.98	119.89	145.14	822.81	1439.3	111.58	796.22	1296.9	-15.964	802.13	1025.5	-35.784	1008.2	1048.8	-140.08	1032.2	1434.7	-18.426	903.85	1153.1	279.06	939.45	1306.2	242.52	900.91	97.045	84.571	937.38	512.91	-132.68	948.24	521.14	-3.8243	977.78	1472	-185.83	941.47	285.48	-47.046	879.57	1135.5	203.58	916.71	192.34	-44.303	789.75	29.11	-38.9	1112.3	1692.1	12.138	977.1	1476	141.46	1112.1	1687.2	-64.463	878.94	91.319	-0.24617	1115.8	537.02	68.338	920.39	288.52	-120.06	946.08	22.556	-118.23	850.36	70.859	-82.033	974.67	874.07	306.76	1049.9	31.598	-51.834	995.8	39.956	-34.41
556	2.78	1039.1	847.96	314.58	1117.2	747.53	178.07	954.56	617.34	-147.37	964.84	372.14	-52.416	1089.1	880.87	-287.75	938.07	1647.8	-103.18	1030.8	1000.9	-309.49	1080.2	636.31	204.56	972.09	1299.4	-282.79	976	1143.3	-309.36	1169.8	860.52	-285.91	1143	46.336	151.23	809.18	1026.6	44.55	1020.2	1052.9	144.55	1053.7	311.64	185.3	1094.2	524.9	198.06	1054.3	224.05	114.81	1123.4	395.92	135.22	905.07	1520.9	-22.985	1046.3	44.738	187.19	934.72	1126.3	-245.53	1090.3	308.9	123.82	960	708.06	-164.76	1058.4	727	212.3	968.12	799.2	-181.61	1028.5	709.2	-141.03	1035.5	885.43	258.7	940.07	1659.7	38.226	1147	909.78	-234.86	1084.1	1261.3	-14.547	936.11	1005.3	304.37	1102.1	47.821	121.67	1021.1	817.28	207.1	1022.3	132.57	74.223	968.75	116.05	145.41	827.85	1439.2	111.5	801.2	1296.9	-15.899	806.92	1025.3	-35.581	1014.3	1048.1	-141.04	1037.3	1434.4	-18.413	907.17	1153	278.98	943.55	1305.9	242.62	918.48	91.567	84.764	938.65	512.88	-132.72	949.8	521.02	-3.8663	982.99	1471.8	-185.76	942.04	285.35	-47.091	883.17	1135.5	203.45	917.05	192.28	-44.353	789.76	29.222	-38.871	1117.4	1691.8	12.281	982.2	1475.6	141.57	1117.3	1686.9	-64.322	878.99	91.363	-0.2435	1121.2	537.04	67.704	920.92	288.46	-120.09	946.05	22.533	-118.25	850.37	70.944	-82.038	976.06	873.59	307.32	1049.9	31.579	-51.848	995.79	39.95	-34.43
